<?xml version="1.0" encoding="iso-8859-1"?>
<!-- Uploaded to: SVG Repo, www.svgrepo.com, Generator: SVG Repo Mixer Tools -->
<svg fill="#000000" height="800px" width="800px" version="1.1" id="Layer_1" xmlns="http://www.w3.org/2000/svg" xmlns:xlink="http://www.w3.org/1999/xlink" 
	 viewBox="0 0 501.995 501.995" xml:space="preserve">
<g>
	<g>
		<g>
			<path d="M500.45,238.679l-67.435-106.546c-1.834-2.896-5.022-4.652-8.45-4.652H340V93.159c0-5.523-4.478-10-10-10h-44
				c-5.522,0-10,4.477-10,10v34.323H10c-5.522,0-10,4.477-10,10v236.019c0,5.523,4.478,10,10,10h36.645
				c4.031,20.125,21.834,35.335,43.127,35.335c21.294,0,39.098-15.21,43.128-35.335h238.771
				c4.031,20.125,21.834,35.335,43.128,35.335c21.293,0,39.097-15.21,43.127-35.335H492c5.522,0,9.995-4.477,9.995-10V243.849
				C501.962,242.033,501.421,240.216,500.45,238.679z M348.25,147.482h32.918v23.314c0,5.523,4.478,10,10,10c5.522,0,10-4.477,10-10
				v-23.314h17.892l54.776,86.546H348.25V147.482z M296,103.159h24v24h-24V103.159z M112.993,380.855
				c-2.715,10.448-12.422,17.981-23.221,17.981c-9.398,0-18.124-5.708-21.933-14.293c-4.379-9.872-1.417-21.74,7.006-28.457
				c7.653-6.103,18.572-6.9,27.021-1.945C111.008,359.502,115.667,370.569,112.993,380.855z M438.02,380.855
				c-2.715,10.448-12.421,17.981-23.22,17.981c-9.398,0-18.124-5.707-21.933-14.293c-4.38-9.873-1.417-21.74,7.007-28.457
				c7.653-6.102,18.572-6.9,27.021-1.945C436.035,359.502,440.693,370.569,438.02,380.855z M482,281.573h-14.377
				c-5.522,0-10,4.477-10,10s4.478,10,10,10H482v12.133h-14.377c-5.522,0-10,4.477-10,10s4.478,10,10,10H482v29.795h-24.706
				c-5.018-18.771-22.164-32.638-42.494-32.638c-20.331,0-37.477,13.868-42.495,32.638H132.268
				c-5.018-18.771-22.164-32.638-42.495-32.638c-20.33,0-37.476,13.868-42.494,32.638H20v-19.822h10.499c5.522,0,10-4.477,10-10
				s-4.478-10-10-10H20V147.482h308.25v96.546c0,5.523,4.478,10,10,10H482V281.573z"/>
			<path d="M294.768,323.679H154.046c-5.522,0-10,4.477-10,10s4.478,10,10,10h140.722c5.522,0,10-4.477,10-10
				S300.29,323.679,294.768,323.679z"/>
			<path d="M328.535,333.679c0,5.523,4.478,10,10,10h14.959c5.522,0,10-4.477,10-10s-4.477-10-10-10h-14.959
				C333.013,323.679,328.535,328.156,328.535,333.679z"/>
			<path d="M391.168,196.253c-5.522,0-10,4.477-10,10v3.324c0,5.523,4.478,10,10,10c5.522,0,10-4.477,10-10v-3.324
				C401.168,200.73,396.69,196.253,391.168,196.253z"/>
			<path d="M195.22,301.572L195.22,301.572c5.522,0.001,10-4.476,10-9.999v-23.065h23.065c5.522,0,10-4.477,10-10v-45.782
				c0-5.523-4.478-10-10-10H205.22V179.66c0-5.523-4.478-10-10-10h-45.782c-5.522,0-10,4.477-10,10v23.065h-23.065
				c-5.522,0-10,4.477-10,10v45.782c0,5.523,4.478,10,10,10h23.065v23.065c0,5.523,4.478,10,10,10H195.22z M126.372,248.507v-25.781
				h23.065c5.522,0,10-4.477,10-10V189.66h25.782v23.065c0,5.523,4.478,10,10,10h23.065v25.782H195.22c-5.522,0-10,4.477-10,10
				v23.065h-25.782v-23.065c0-5.523-4.478-10-10-10H126.372z"/>
		</g>
	</g>
</g>
</svg>